<svg width="14" height="14" viewBox="0 0 14 14" fill="none" xmlns="http://www.w3.org/2000/svg">
<path d="M5.21716 8.82038C6.21806 8.82038 7.06881 8.47007 7.76944 7.76944C8.47007 7.06881 8.82038 6.21806 8.82038 5.21716C8.82038 4.21626 8.47007 3.36551 7.76944 2.66488C7.06881 1.96425 6.21806 1.61394 5.21716 1.61394C4.21626 1.61394 3.36551 1.96425 2.66488 2.66488C1.96425 3.36551 1.61394 4.21626 1.61394 5.21716C1.61394 6.21806 1.96425 7.06881 2.66488 7.76944C3.36551 8.47007 4.21626 8.82038 5.21716 8.82038ZM10.0214 8.82038L14 12.7989L12.7989 14L8.82038 10.0214V9.38338L8.59517 9.15818C7.64432 9.98392 6.51833 10.3968 5.21716 10.3968C3.76586 10.3968 2.53352 9.89634 1.52011 8.89544C0.506697 7.89454 0 6.66846 0 5.21716C0 3.76586 0.506697 2.53352 1.52011 1.52011C2.53352 0.506697 3.76586 0 5.21716 0C6.66846 0 7.89454 0.506697 8.89544 1.52011C9.89634 2.53352 10.3968 3.76586 10.3968 5.21716C10.3968 6.51833 9.98392 7.64432 9.15818 8.59517L9.38338 8.82038H10.0214Z" fill="black" fill-opacity="0.8"/>
</svg>
